<svg xmlns="http://www.w3.org/2000/svg" viewBox="0 0 150 151.29"><defs><style>.cls-1{fill:#2b3f58;}</style></defs><g id="Layer_2" data-name="Layer 2"><g id="widget"><g id="tue"><polygon class="cls-1" points="40.68 99.84 22.26 118.26 22.26 118.25 30.14 124.77 21.64 140.1 40.41 125.59 32.53 117.71 40.68 99.84"/><polygon class="cls-1" points="84.65 95.65 59.19 121.11 59.19 121.09 70.07 130.1 58.34 151.29 84.27 131.23 73.39 120.35 84.65 95.65"/><polygon class="cls-1" points="121.33 99.84 102.91 118.26 102.91 118.25 110.79 124.77 102.29 140.1 121.06 125.59 113.18 117.71 121.33 99.84"/><path class="cls-1" d="M123.1,30.5a33,33,0,0,0-5.23.41A22.22,22.22,0,0,0,97.53,18a22.47,22.47,0,0,0-3,.22C93.09,7.92,84.76,0,74.68,0c-9.56,0-17.55,7.12-19.6,16.66A19,19,0,0,0,50,15.94c-10.45,0-19,8.51-20,19.39a19,19,0,0,0-9.83-2.76C9,32.57,0,42.2,0,54.06S9,75.55,20.14,75.55a19.86,19.86,0,0,0,3-.25C26,83.4,33.31,89.17,41.92,89.17a19,19,0,0,0,8-1.77c5.29,5.53,14,9.14,23.9,9.14,13.23,0,24.38-6.46,28-15.33a19.18,19.18,0,0,0,12,4.3c8.44,0,15.63-5.53,18.64-13.37C142.7,69.1,150,61.22,150,52,150,40.12,138,30.5,123.1,30.5ZM20.44,40.91C12.29,40.76,8,49.13,8.08,56.37,8.1,59,4,59,4,56.37,3.87,46.87,10,36.6,20.44,36.79,23.09,36.84,23.1,41,20.44,40.91Zm26.05-16c-3.69.79-7.09,4.46-7.24,8.31-.11,2.65-4.23,2.66-4.12,0A13.7,13.7,0,0,1,45.4,20.89C48,20.33,49.09,24.3,46.49,24.87ZM74,8.19c-4-.06-8.21,3.65-8.84,7.51-.43,2.62-4.39,1.5-4-1.1C62.12,9,68.41,4,74,4.07,76.68,4.11,76.69,8.24,74,8.19Z"/></g></g></g></svg>