<svg xmlns="http://www.w3.org/2000/svg" viewBox="0 0 150 81.78"><defs><style>.cls-1{fill:#2b3f58;}</style></defs><g id="Layer_2" data-name="Layer 2"><g id="widget"><g id="sun"><path class="cls-1" d="M62.44,59.44c-.76-8-10.38-12.51-17.09-8.7a14.74,14.74,0,0,0-28.93-1.08,14.77,14.77,0,0,0-3.72-.5C5,49.16-1.13,55.52.18,62.91,3.7,82.81,64.6,82.28,62.44,59.44ZM10.15,54.68c-3.42.07-6.32,4.68-5,7.84.77,1.81-1.89,3.39-2.67,1.56C.25,58.8,4.17,51.71,10.15,51.59,12.14,51.55,12.14,54.64,10.15,54.68Zm19.3-10.94c-2.37,0-5.44,1.95-5.66,4.51-.17,2-3.27,2-3.09,0,.38-4.25,4.58-7.6,8.75-7.59A1.54,1.54,0,0,1,29.45,43.74Z"/><path class="cls-1" d="M140.2,38.28c-5.8,2.46-13.21,3.82-21.42,3.82h0c-15.5,0-32.07-5.21-34.14-16.87a14.13,14.13,0,0,1,3.17-11.7,15.14,15.14,0,0,1,2.35-2.25,18.17,18.17,0,0,0-34.53,2.83,18.15,18.15,0,0,0-22.7,15.82A18.19,18.19,0,0,0,5.83,45.8c0,.58,0,1.15.09,1.72a16.5,16.5,0,0,1,6.78-1.45,14.44,14.44,0,0,1,1.6.09,17.83,17.83,0,0,1,33.16.48,14.18,14.18,0,0,1,3.19-.36c7.65,0,14.18,5.65,14.86,12.87a14.56,14.56,0,0,1-3.89,11.4,24.54,24.54,0,0,1-8.12,5.6,32.91,32.91,0,0,0,19,5.63c12,0,22.06-5.47,25.32-13a18.16,18.16,0,0,0,27.72-7.69c9.27-2.58,15.88-9.25,15.88-17.07A14,14,0,0,0,140.2,38.28Zm-91-17.5c-4.4.76-8.63,4-9.85,8.44a1.55,1.55,0,0,1-3-.82,15.57,15.57,0,0,1,12-10.6C50.29,17.47,51.12,20.44,49.16,20.78ZM71.3,6.24c-3.7.61-6.77,3.78-8.18,7.16-.76,1.81-3.75,1-3-.82,1.8-4.31,5.53-8.52,10.34-9.32C72.43,2.94,73.26,5.91,71.3,6.24Z"/><path class="cls-1" d="M149.94,21.22c-.75-8-10.37-12.51-17.08-8.7a14.74,14.74,0,0,0-28.93-1.08,14.76,14.76,0,0,0-3.72-.49c-7.66,0-13.83,6.35-12.52,13.74C91.2,44.59,152.11,44.06,149.94,21.22ZM99.46,16.46c-3.43-.06-6.68,3.78-6.69,7.08a1.55,1.55,0,0,1-3.09,0c0-4.95,4.67-10.27,9.78-10.17C101.45,13.41,101.46,16.5,99.46,16.46ZM118,6.55a6.3,6.3,0,0,0-6.39,3.1c-1,1.7-3.7.15-2.67-1.56A9.34,9.34,0,0,1,118,3.46C120,3.63,120,6.72,118,6.55Z"/></g></g></g></svg>