<svg xmlns="http://www.w3.org/2000/svg" viewBox="0 0 150 104.81"><defs><style>.cls-1{fill:#2b3f58;}</style></defs><g id="Layer_2" data-name="Layer 2"><g id="widget"><g id="sat"><path class="cls-1" d="M52.42,88.9a46.11,46.11,0,0,1-14.18-2.24A46.25,46.25,0,0,1,26.6,78.21a46.83,46.83,0,0,1-8.45-11.62,46.23,46.23,0,0,1,0-28.37A46.14,46.14,0,0,1,38.23,18.15a46.2,46.2,0,0,1,28.36,0,46.62,46.62,0,0,1,11.62,8.46,50.37,50.37,0,0,1,8.71,12.1c.14-.31,2.54-23.36,2.54-23.36L66.73,17.82,52.42,0,38.08,17.82,15.35,15.35l2.47,22.73L0,52.41,17.82,66.73,15.35,89.46,38.08,87l14.34,17.82L66.58,87.19c-.18-.12-.37-.24-.54-.37A46.5,46.5,0,0,1,52.42,88.9Z"/><path class="cls-1" d="M136.8,52.55a12.46,12.46,0,0,0-6.46,1.81c-.66-7.14-6.28-12.73-13.14-12.73a12.37,12.37,0,0,0-3.34.48,13,13,0,0,0-25.35-1.35,6.77,6.77,0,0,0-3.88-.15l-.31-.76a34.28,34.28,0,1,0-21.38,45.2l3.67-1.29a12.51,12.51,0,0,0,16.61.7c2.36,5.82,9.69,10.06,18.37,10.06,6.48,0,12.21-2.37,15.68-6a12.51,12.51,0,0,0,5.24,1.16,13.29,13.29,0,0,0,12.34-9.1,12.41,12.41,0,0,0,2,.17c7.29,0,13.2-6.31,13.2-14.1S144.09,52.55,136.8,52.55Zm-65.65-4c-.63,0-1.27-.08-1.91-.08C58,48.5,48.9,56,48.9,65.28,48.9,72,53.75,78,61.11,80.67a18.53,18.53,0,0,0,1,1.81A31.59,31.59,0,1,1,81.81,40.85,17.22,17.22,0,0,0,71.15,48.58Zm53.36,4.62c-.59-3.4-3.08-6.33-6.7-6.5-1.74-.08-1.76-2.79,0-2.71a10.06,10.06,0,0,1,9.31,8.49C127.43,54.19,124.82,54.92,124.51,53.2Zm19.22,16.51a1.47,1.47,0,0,1-1.87-1.42c.29-2.29.82-4.6-.61-6.75a8.41,8.41,0,0,0-4.08-3.41,11.66,11.66,0,0,1-2.61-1.2.47.47,0,0,1,.23-.87c4.42-.26,7.81,1.1,9.88,5.2C145.81,63.52,146.76,68.62,143.73,69.71Z"/></g></g></g></svg>