<svg xmlns="http://www.w3.org/2000/svg" viewBox="0 0 150 150"><defs><style>.cls-1{fill:#2b3f58;}</style></defs><g id="Layer_2" data-name="Layer 2"><g id="widget"><g id="fri"><g id="sun"><path class="cls-1" d="M75,122.14A47.14,47.14,0,1,1,122.14,75,47.2,47.2,0,0,1,75,122.14Zm0-90.41A43.27,43.27,0,1,0,118.27,75,43.32,43.32,0,0,0,75,31.73Z"/><path class="cls-1" d="M150,75,124.49,54.5,128,22,95.5,25.51,75,0,54.5,25.51,22,22,25.51,54.5,0,75,25.51,95.5,22,128l32.53-3.54L75,150l20.5-25.51L128,128,124.49,95.5Zm-38.08,36.92A66.15,66.15,0,0,1,95.29,124a66.09,66.09,0,0,1-40.57,0A66.21,66.21,0,0,1,26,95.3a66.19,66.19,0,0,1,0-40.6A66.25,66.25,0,0,1,54.71,26a66.09,66.09,0,0,1,40.57,0A66.25,66.25,0,0,1,124,54.7a66,66,0,0,1,0,40.6A66.31,66.31,0,0,1,111.92,111.92Z"/></g></g></g></g></svg>