<svg xmlns="http://www.w3.org/2000/svg" viewBox="0 0 150 111.43"><defs><style>.cls-1{fill:#2b3f58;}</style></defs><g id="Layer_2" data-name="Layer 2"><g id="widget"><g id="thu"><path class="cls-1" d="M50.83,96.78c-1,4.32-4.81,7.13-8.53,6.28S36.38,98,37.37,93.68s9.81-11.81,9.81-11.81S51.83,92.47,50.83,96.78Z"/><path class="cls-1" d="M82.78,103.31c-1.27,5.46-6.09,9-10.79,7.93s-7.48-6.39-6.22-11.85,12.4-14.93,12.4-14.93S84,97.85,82.78,103.31Z"/><path class="cls-1" d="M112.73,96.78c-1,4.32-4.82,7.13-8.53,6.28S98.27,98,99.27,93.68s9.8-11.81,9.8-11.81S113.72,92.47,112.73,96.78Z"/><path class="cls-1" d="M62.43,59.44c-.75-8-10.37-12.51-17.08-8.71a14.74,14.74,0,0,0-28.93-1.08,15.3,15.3,0,0,0-3.72-.49C5,49.16-1.13,55.51.17,62.91,3.7,82.81,64.6,82.27,62.43,59.44ZM10.15,54.68c-3.43.07-6.32,4.67-5,7.84C6,64.33,3.29,65.9,2.51,64.08.25,58.8,4.17,51.71,10.15,51.59,12.15,51.55,12.15,54.64,10.15,54.68Zm19.3-10.94c-2.37,0-5.43,1.95-5.66,4.51-.17,2-3.26,2-3.09,0,.37-4.25,4.57-7.61,8.75-7.6A1.55,1.55,0,0,1,29.45,43.74Z"/><path class="cls-1" d="M140.21,38.28a55.88,55.88,0,0,1-21.43,3.83h0c-15.51,0-32.08-5.23-34.14-16.88a14.11,14.11,0,0,1,3.16-11.7,16.18,16.18,0,0,1,2.35-2.26,18.17,18.17,0,0,0-34.52,2.84,18.12,18.12,0,0,0-22.7,15.82A18.19,18.19,0,0,0,5.83,45.8c0,.58,0,1.15.09,1.71a16.66,16.66,0,0,1,6.78-1.44c.53,0,1.06,0,1.6.08a17.84,17.84,0,0,1,33.16.49,14.18,14.18,0,0,1,3.19-.36c7.65,0,14.18,5.65,14.86,12.86a14.6,14.6,0,0,1-3.89,11.41,24.52,24.52,0,0,1-8.12,5.59,32.94,32.94,0,0,0,19,5.64c12,0,22-5.48,25.31-13a18.16,18.16,0,0,0,27.73-7.69c9.27-2.57,15.88-9.24,15.88-17.07A14.17,14.17,0,0,0,140.21,38.28ZM49.16,20.78c-4.41.76-8.62,4-9.85,8.44a1.55,1.55,0,0,1-3-.82,15.56,15.56,0,0,1,12-10.6C50.29,17.46,51.13,20.44,49.16,20.78ZM71.3,6.24c-3.7.61-6.78,3.79-8.18,7.16-.76,1.8-3.76,1-3-.82,1.81-4.31,5.53-8.52,10.35-9.32C72.42,2.94,73.26,5.91,71.3,6.24Z"/><path class="cls-1" d="M149.94,21.22c-.76-8-10.38-12.51-17.08-8.7a14.74,14.74,0,0,0-28.94-1.08,14.69,14.69,0,0,0-3.71-.49c-7.67,0-13.83,6.35-12.53,13.74C91.21,44.59,152.1,44.05,149.94,21.22ZM99.46,16.46c-3.43-.07-6.68,3.78-6.69,7.08a1.55,1.55,0,0,1-3.09,0c0-4.95,4.66-10.27,9.78-10.17C101.44,13.41,101.45,16.5,99.46,16.46ZM118,6.55a6.31,6.31,0,0,0-6.39,3.1,1.54,1.54,0,0,1-2.66-1.56,9.32,9.32,0,0,1,9-4.63C120,3.64,120,6.72,118,6.55Z"/></g></g></g></svg>