<svg xmlns="http://www.w3.org/2000/svg" viewBox="0 0 150 131.52"><defs><style>.cls-1{fill:#2b3f58;}</style></defs><g id="Layer_2" data-name="Layer 2"><g id="widget"><g id="wed"><path class="cls-1" d="M44,114.86c-1.12,4.91-5.47,8.1-9.7,7.13s-6.74-5.75-5.6-10.66S39.84,97.88,39.84,97.88,45.12,109.94,44,114.86Z"/><path class="cls-1" d="M80.33,122.28c-1.43,6.21-6.93,10.25-12.27,9S59.55,124,61,117.82s14.11-17,14.11-17S81.77,116.07,80.33,122.28Z"/><path class="cls-1" d="M114.42,114.86c-1.14,4.91-5.49,8.1-9.71,7.13s-6.75-5.75-5.62-10.66,11.18-13.45,11.18-13.45S115.55,109.94,114.42,114.86Z"/><path class="cls-1" d="M123.09,30.5a35.5,35.5,0,0,0-5.22.4A22.23,22.23,0,0,0,97.53,18a22.47,22.47,0,0,0-3,.22C93.09,7.92,84.76,0,74.68,0c-9.57,0-17.55,7.13-19.6,16.66A19,19,0,0,0,50,15.94c-10.45,0-19,8.51-20,19.39a19,19,0,0,0-9.83-2.75C9,32.58,0,42.2,0,54.07S9,75.55,20.14,75.55a19.62,19.62,0,0,0,3-.25c2.88,8.09,10.2,13.87,18.8,13.87a19,19,0,0,0,8-1.77c5.29,5.53,14,9.14,23.89,9.14,13.24,0,24.39-6.46,28-15.32a19.23,19.23,0,0,0,12,4.29c8.44,0,15.63-5.53,18.63-13.37C142.7,69.1,150,61.23,150,52,150,40.12,138,30.5,123.09,30.5ZM20.44,40.91C12.29,40.76,8,49.13,8.08,56.37,8.1,59,4,59,4,56.37,3.87,46.87,10,36.6,20.44,36.79,23.1,36.84,23.1,41,20.44,40.91Zm26.05-16c-3.68.79-7.09,4.46-7.24,8.31-.11,2.65-4.23,2.66-4.12,0A13.7,13.7,0,0,1,45.4,20.89C48,20.33,49.09,24.31,46.49,24.87ZM74,8.19c-4-.06-8.21,3.65-8.84,7.51-.43,2.62-4.39,1.5-4-1.1C62.12,9,68.41,4,74,4.07,76.68,4.11,76.69,8.24,74,8.19Z"/></g></g></g></svg>